<svg width="42" height="42" viewBox="0 0 42 42" fill="none" xmlns="http://www.w3.org/2000/svg">
<circle cx="21" cy="21" r="21" fill="#2868E8"/>
<path d="M12.17 16.4395L21 21.5494L29.77 16.4694" stroke="white" stroke-width="1.2" stroke-linecap="round" stroke-linejoin="round"/>
<path d="M21 30.6091V21.5391" stroke="white" stroke-width="1.2" stroke-linecap="round" stroke-linejoin="round"/>
<path d="M13.59 14.45C12.38 15.12 11.39 16.8 11.39 18.18V23.83C11.39 25.21 12.38 26.89 13.59 27.56L18.93 30.53C20.07 31.16 21.94 31.16 23.08 30.53L28.42 27.56C29.63 26.89 30.62 25.21 30.62 23.83V18.18C30.62 16.8 29.63 15.12 28.42 14.45L23.08 11.48C21.93 10.84 20.07 10.84 18.93 11.48L13.59 14.45Z" stroke="white" stroke-width="1.2" stroke-linecap="round" stroke-linejoin="round"/>
<path d="M26 22.2396V18.5797L16.51 13.0996" stroke="white" stroke-width="1.2" stroke-linecap="round" stroke-linejoin="round"/>
</svg>
