<svg width="40" height="40" viewBox="0 0 40 40" fill="none" xmlns="http://www.w3.org/2000/svg">
<path d="M3.33331 26.9848C3.33331 29.4681 3.93331 31.5348 5.08331 33.1181C5.56665 33.8181 6.18331 34.4348 6.88331 34.9181C8.24998 35.9181 9.98331 36.5014 12.0333 36.6348V3.38477C6.56665 3.73477 3.33331 7.28477 3.33331 13.0181V26.9848Z" fill="url(#paint0_linear_1518_5262)"/>
<path fill-rule="evenodd" clip-rule="evenodd" d="M33.1178 5.08398C31.5345 3.93398 29.4678 3.33398 26.9845 3.33398H14.5345V36.6673H26.9845C33.0512 36.6673 36.6678 33.0507 36.6678 26.984V13.0173C36.6678 10.534 36.0678 8.46732 34.9178 6.88398C34.4345 6.18398 33.8178 5.56732 33.1178 5.08398ZM25.8345 25.1507C25.5845 25.4007 25.2678 25.5173 24.9512 25.5173C24.6345 25.5173 24.3178 25.4007 24.0678 25.1507L19.8012 20.884C19.3178 20.4007 19.3178 19.6007 19.8012 19.1173L24.0678 14.8507C24.5512 14.3673 25.3512 14.3673 25.8345 14.8507C26.3178 15.334 26.3178 16.134 25.8345 16.6173L22.4678 20.0007L25.8345 23.384C26.3178 23.8673 26.3178 24.6673 25.8345 25.1507Z" fill="url(#paint1_linear_1518_5262)"/>
<defs>
<linearGradient id="paint0_linear_1518_5262" x1="7.68331" y1="3.38477" x2="7.68331" y2="36.6348" gradientUnits="userSpaceOnUse">
<stop stop-color="#6E8AFC"/>
<stop offset="1" stop-color="#375DFB"/>
</linearGradient>
<linearGradient id="paint1_linear_1518_5262" x1="25.6012" y1="3.33398" x2="25.6012" y2="36.6673" gradientUnits="userSpaceOnUse">
<stop stop-color="#6E8AFC"/>
<stop offset="1" stop-color="#375DFB"/>
</linearGradient>
</defs>
</svg>
